<svg xmlns="http://www.w3.org/2000/svg" viewBox="0 0 64 64" role="img" aria-label="Compile Craft Favicon">
  <defs>
    <linearGradient id="g" x1="0" x2="1" y1="0" y2="1">
      <stop offset="0%" stop-color="#06b6d4"/>
      <stop offset="100%" stop-color="#2563eb"/>
    </linearGradient>
    <filter id="glow" x="-40%" y="-40%" width="180%" height="180%">
      <feGaussianBlur stdDeviation="1.6" result="b" />
      <feMerge>
        <feMergeNode in="b" />
        <feMergeNode in="SourceGraphic" />
      </feMerge>
    </filter>
  </defs>
  <!-- Background -->
  <rect x="2" y="2" width="60" height="60" rx="14" fill="#0f172a" stroke="url(#g)" stroke-width="3" />

  <!-- fa-code-branch inspired shape with gradient nodes and glow -->
  <circle cx="22" cy="20" r="7" fill="url(#g)" filter="url(#glow)"/>
  <circle cx="22" cy="44" r="7" fill="url(#g)" filter="url(#glow)"/>
  <circle cx="46" cy="32" r="7" fill="url(#g)" filter="url(#glow)"/>

  <path d="M22 27 V37" stroke="url(#g)" stroke-width="5" stroke-linecap="round" filter="url(#glow)"/>
  <path d="M28 20c10 0 10 8 10 12 0 4 0 8 8 8" fill="none" stroke="url(#g)" stroke-width="5" stroke-linecap="round" stroke-linejoin="round" filter="url(#glow)"/>
  <path d="M28 44c10 0 10 -8 10 -12 0 -4 0 -8 8 -8" fill="none" stroke="url(#g)" stroke-width="5" stroke-linecap="round" stroke-linejoin="round" filter="url(#glow)" opacity="0.7"/>

  <circle cx="22" cy="20" r="3" fill="#ffffff30"/>
  <circle cx="22" cy="44" r="3" fill="#ffffff30"/>
  <circle cx="46" cy="32" r="3" fill="#ffffff30"/>
</svg>
